# xmcd
# 
# Track frame offsets:
#     150
#     73600
#     96497
#     154645
#     209905
#     247250
# 
# Disc length: 4165
# 
# Revision: 1
# Processed by: cddbd v1.5.2PL0 Copyright (c) Steve Scherf et al.
# Submitted via: BonkEnc v1.0.8
# 
DISCID=5c104306
DTITLE=V.S.O.P. The Quintet - Tempest In The Colosseum
DYEAR=1977
DGENRE=Contemporary Jazz
TTITLE0=Eye of the hurricane
TTITLE1=Diana
TTITLE2=Eighty-one
TTITLE3=Maiden voyage
TTITLE4=Lawra
TTITLE5=Red Clay
EXTD=V.S.O.P The Quintet: Herbie Hancock (piano), Wayne Shorter (tenor and soprano saxophone]\nFreddie Hubbard (trumpet), Ron Carter (bass), Tony Williams (drums]\n1977
EXTT0=
EXTT1=
EXTT2=
EXTT3=
EXTT4=
EXTT5=
PLAYORDER=
